<?xml version="1.0" encoding="UTF-8" standalone="no"?>
<!-- Created with Inkscape (http://www.inkscape.org/) -->

<svg
   width="33.866673mm"
   height="33.866665mm"
   viewBox="0 0 33.866672 33.866665"
   version="1.1"
   id="svg1"
   xml:space="preserve"
   xmlns="http://www.w3.org/2000/svg"
   xmlns:svg="http://www.w3.org/2000/svg"><defs
     id="defs1" /><g
     id="layer1"
     transform="translate(-439.39014)"><path
       d="m 444.41217,7.5011121 h 1.814 a 0.6650224,0.6650224 45 0 1 0.66502,0.6650224 v 1.8140321 a 0.6650224,0.6650224 135 0 1 -0.66502,0.6650224 h -1.814 A 0.6650224,0.6650224 45 0 1 443.74715,9.9801666 V 8.1661345 a 0.6650224,0.6650224 135 0 1 0.66502,-0.6650224 z m 0,7.8601869 1.814,0 a 0.6650224,0.6650224 45 0 1 0.66502,0.665022 l 0,1.814026 a 0.6650224,0.6650224 135 0 1 -0.66502,0.665022 h -1.814 a 0.6650224,0.6650224 45 0 1 -0.66502,-0.665022 v -1.814026 a 0.6650224,0.6650224 135 0 1 0.66502,-0.665022 z m 0,7.86018 h 1.814 a 0.6650224,0.6650224 45 0 1 0.66502,0.665022 v 1.81403 a 0.6650224,0.6650224 135 0 1 -0.66502,0.665022 l -1.814,0 a 0.6650224,0.6650224 45 0 1 -0.66502,-0.665022 l 0,-1.81403 a 0.6650224,0.6650224 135 0 1 0.66502,-0.665022 z M 468.89972,9.9801666 V 8.1661345 A 0.6650224,0.6650224 45 0 0 468.2347,7.5011121 h -17.49822 a 0.6650224,0.6650224 135 0 0 -0.66502,0.6650224 v 1.8140321 a 0.6650224,0.6650224 45 0 0 0.66502,0.6650224 h 15.61178 l 1.88644,0 a 0.6650224,0.6650224 135 0 0 0.66502,-0.6650224 z M 450.7003,15.361299 h 17.5344 a 0.6650224,0.6650224 45 0 1 0.66502,0.665022 v 1.814026 a 0.6650224,0.6650224 135 0 1 -0.66502,0.665022 h -17.5344 a 0.6650224,0.6650224 45 0 1 -0.66502,-0.665022 v -1.814026 a 0.6650224,0.6650224 135 0 1 0.66502,-0.665022 z m 0,7.86018 h 17.5344 a 0.6650224,0.6650224 45 0 1 0.66502,0.665022 v 1.81403 a 0.6650224,0.6650224 135 0 1 -0.66502,0.665022 h -17.5344 a 0.6650224,0.6650224 45 0 1 -0.66502,-0.665022 v -1.81403 a 0.6650224,0.6650224 135 0 1 0.66502,-0.665022 z"
       id="path1-0-6"
       style="stroke-width:0.264584" /></g></svg>
