<?xml version="1.0" encoding="UTF-8" standalone="no"?>
<!-- Created with Inkscape (http://www.inkscape.org/) -->

<svg
   width="33.866673mm"
   height="33.866665mm"
   viewBox="0 0 33.866672 33.866665"
   version="1.1"
   id="svg1"
   xml:space="preserve"
   xmlns="http://www.w3.org/2000/svg"
   xmlns:svg="http://www.w3.org/2000/svg"><defs
     id="defs1" /><g
     id="layer1"
     transform="translate(-481.23514)"><path
       d="m 487.06807,6.0782957 h 22.20073 a 1.3054339,1.3054339 45 0 1 1.30543,1.3054339 l 0,0.490538 a 1.3054339,1.3054339 135 0 1 -1.30543,1.3054339 h -22.20073 a 1.3054339,1.3054339 45 0 1 -1.30543,-1.3054339 l 0,-0.490538 a 1.3054339,1.3054339 135 0 1 1.30543,-1.3054339 z m 0,7.7535723 h 22.20073 a 1.3054339,1.3054339 45 0 1 1.30543,1.305434 l 0,0.490597 a 1.3054339,1.3054339 135 0 1 -1.30543,1.305434 l -22.20073,0 a 1.3054339,1.3054339 45 0 1 -1.30543,-1.305434 v -0.490597 a 1.3054339,1.3054339 135 0 1 1.30543,-1.305434 z m 0,7.753631 h 22.20073 a 1.3054339,1.3054339 45 0 1 1.30543,1.305434 l 0,0.490597 a 1.3054339,1.3054339 135 0 1 -1.30543,1.305434 h -22.20073 a 1.3054339,1.3054339 45 0 1 -1.30543,-1.305434 v -0.490597 a 1.3054339,1.3054339 135 0 1 1.30543,-1.305434 z"
       id="path1-61"
       style="stroke-width:0.264583"
       transform="translate(0,1.5507028)" /></g></svg>
