<?xml version="1.0" encoding="UTF-8" standalone="no"?>
<!-- Created with Inkscape (http://www.inkscape.org/) -->

<svg
   width="33.866673mm"
   height="33.866665mm"
   viewBox="0 0 33.866672 33.866665"
   version="1.1"
   id="svg1"
   xml:space="preserve"
   xmlns="http://www.w3.org/2000/svg"
   xmlns:svg="http://www.w3.org/2000/svg"><defs
     id="defs1" /><g
     id="layer1"
     transform="translate(-397.38815,-40.165565)"><path
       d="m 404.66356,60.369924 2.00012,3.459914 a 0.99999372,0.99999372 0 0 0 1.36598,0.365075 l 1.39594,-0.805964 c 0.5798,0.457292 1.22093,0.831968 1.895,1.112009 v 1.597947 a 0.99999372,0.99999372 0 0 0 1.00006,0.999993 h 3.99994 a 0.99999372,0.99999372 0 0 0 0.99996,-0.999993 v -1.597947 a 8.0939485,8.0939485 0 0 0 1.895,-1.112009 l 1.39604,0.805964 c 0.47688,0.275132 1.09096,0.109603 1.36598,-0.365075 l 1.99992,-3.459914 a 1.0039937,1.0039937 0 0 0 -0.36506,-1.366051 l -1.37204,-0.792965 a 7.6829519,7.6829519 0 0 0 0,-2.224019 l 1.37194,-0.792965 c 0.47622,-0.275131 0.64094,-0.890017 0.36506,-1.365977 l -1.99992,-3.459988 a 0.99999372,0.99999372 0 0 0 -1.36608,-0.365078 l -1.39603,0.805966 a 8.0339493,8.0339493 0 0 0 -1.89385,-1.111934 V 48.09889 a 0.99999372,0.99999372 0 0 0 -1.00006,-0.999991 h -4.00003 a 0.99999372,0.99999372 0 0 0 -0.99997,0.999991 v 1.598023 a 8.0939485,8.0939485 0 0 0 -1.895,1.111934 l -1.39498,-0.805966 a 0.99899372,0.99899372 0 0 0 -1.36598,0.365078 l -2.00002,3.459988 a 1.0039937,1.0039937 0 0 0 0.36507,1.365977 l 1.37193,0.792965 a 7.6829519,7.6829519 0 0 0 0,2.224019 l -1.37193,0.792965 c -0.47613,0.275129 -0.64095,0.890014 -0.36507,1.366051 z m 9.65606,-7.270995 c 2.20593,0 3.99994,1.794015 3.99994,3.999969 0,2.206029 -1.79401,3.99997 -3.99994,3.99997 -2.20602,0 -3.99994,-1.793941 -3.99994,-3.99997 0,-2.205954 1.79392,-3.999969 3.99994,-3.999969 z"
       id="path1-3-7"
       style="stroke-width:0.1323" /></g></svg>
