<?xml version="1.0" encoding="UTF-8" standalone="no"?>
<!-- Created with Inkscape (http://www.inkscape.org/) -->

<svg
   width="33.866673mm"
   height="33.866665mm"
   viewBox="0 0 33.866672 33.866665"
   version="1.1"
   id="svg1"
   xml:space="preserve"
   xmlns="http://www.w3.org/2000/svg"
   xmlns:svg="http://www.w3.org/2000/svg"><defs
     id="defs1" /><g
     id="layer1"
     transform="translate(-439.39014,-40.165565)"><path
       d="m 450.32314,52.098898 h -1.00006 V 65.0989 c 0,1.104585 0.89546,2.000021 2.00004,1.999999 h 9.99997 c 1.10458,1.7e-5 2.00003,-0.895418 2.00003,-1.999999 V 52.098898 Z m 3.99998,12.000001 h -2.00003 V 55.0989 h 2.00003 z m 6,0 h -2.00004 V 55.0989 h 2.00004 z m 0.0921,-15.650475 -1.09175,-1.349525 h -6 l -1.09175,1.349525 a 1.7530539,1.7530539 154.48626 0 1 -1.36291,0.650475 h -2.52693 a 1.0184228,1.0184228 135 0 0 -1.01842,1.018423 v 0.981577 h 18.00001 v -0.981577 a 1.0184228,1.0184228 45 0 0 -1.01842,-1.018423 h -2.52692 a 1.7530539,1.7530539 25.513744 0 1 -1.36291,-0.650475 z"
       id="path1-6-9"
       style="stroke-width:0.1323" /></g></svg>
