<?xml version="1.0" encoding="UTF-8" standalone="no"?>
<!-- Created with Inkscape (http://www.inkscape.org/) -->

<svg
   width="33.866673mm"
   height="33.866665mm"
   viewBox="0 0 33.866672 33.866665"
   version="1.1"
   id="svg1"
   xml:space="preserve"
   xmlns="http://www.w3.org/2000/svg"
   xmlns:svg="http://www.w3.org/2000/svg"><defs
     id="defs1" /><g
     id="layer1"
     transform="translate(-397.38815)"><path
       id="path1-06-7"
       style="stroke-width:0.176389"
       d="m 406.29481,7.5011122 c -0.57871,-1.84e-5 -1.04803,0.4692063 -1.04803,1.0480247 v 6.2881451 c 0,0.578826 0.46938,1.048042 1.04803,1.048025 h 6.28813 c 0.5787,-6e-6 1.04802,-0.469205 1.04802,-1.048025 V 8.5491369 c 0,-0.5788248 -0.46938,-1.0480183 -1.04802,-1.0480247 z m 10.48019,0 c -0.57871,0 -1.04797,0.4692063 -1.04797,1.0480247 v 6.2881451 c 0,0.578826 0.46938,1.048025 1.04797,1.048025 h 6.28819 c 0.5787,0 1.04803,-0.469205 1.04803,-1.048025 V 8.5491369 c 0,-0.5788248 -0.46939,-1.0480247 -1.04803,-1.0480247 z M 406.29481,17.981357 c -0.57871,-1.7e-5 -1.04803,0.469205 -1.04803,1.048025 v 6.288145 c 0,0.578826 0.46938,1.048042 1.04803,1.048026 h 6.28813 c 0.5787,-5e-6 1.04802,-0.469206 1.04802,-1.048026 v -6.288145 c 0,-0.578826 -0.46938,-1.048019 -1.04802,-1.048025 z m 10.48019,0 c -0.57871,6e-6 -1.04797,0.469205 -1.04797,1.048025 v 6.288145 c 0,0.578826 0.46938,1.048021 1.04797,1.048026 h 6.28819 c 0.5787,-5e-6 1.04803,-0.469206 1.04803,-1.048026 v -6.288145 c 0,-0.578826 -0.46939,-1.048019 -1.04803,-1.048025 z" /></g></svg>
